<svg xmlns="http://www.w3.org/2000/svg" viewBox="0 0 1200 630">
  <defs>
    <linearGradient id="bg" x1="0%" y1="0%" x2="100%" y2="100%">
      <stop offset="0%" style="stop-color:#0f172a"/>
      <stop offset="50%" style="stop-color:#1e1b4b"/>
      <stop offset="100%" style="stop-color:#0f172a"/>
    </linearGradient>
    <linearGradient id="accent" x1="0%" y1="0%" x2="100%" y2="0%">
      <stop offset="0%" style="stop-color:#6366f1"/>
      <stop offset="100%" style="stop-color:#a855f7"/>
    </linearGradient>
  </defs>
  <rect width="1200" height="630" fill="url(#bg)"/>
  <circle cx="900" cy="150" r="300" fill="#6366f1" opacity="0.08"/>
  <circle cx="300" cy="500" r="250" fill="#a855f7" opacity="0.06"/>
  <rect x="80" y="280" width="400" height="8" rx="4" fill="url(#accent)"/>
  <text x="80" y="230" font-family="system-ui, -apple-system, sans-serif" font-size="72" font-weight="800" fill="white">FlashTests</text>
  <text x="80" y="340" font-family="system-ui, -apple-system, sans-serif" font-size="32" fill="#94a3b8">Generador de tests con IA</text>
  <text x="80" y="390" font-family="system-ui, -apple-system, sans-serif" font-size="24" fill="#64748b">Estudia más rápido. Retiene más.</text>
  <rect x="80" y="450" width="200" height="56" rx="12" fill="url(#accent)"/>
  <text x="180" y="486" font-family="system-ui, -apple-system, sans-serif" font-size="20" font-weight="600" fill="white" text-anchor="middle">Empezar gratis</text>
  <rect x="820" y="200" width="280" height="320" rx="16" fill="#1e293b" stroke="#334155" stroke-width="2"/>
  <rect x="840" y="230" width="240" height="24" rx="4" fill="#334155"/>
  <rect x="840" y="270" width="180" height="16" rx="4" fill="#1e293b"/>
  <rect x="840" y="300" width="200" height="16" rx="4" fill="#1e293b"/>
  <rect x="840" y="340" width="240" height="48" rx="8" fill="#6366f1" opacity="0.3"/>
  <text x="960" y="372" font-family="system-ui, sans-serif" font-size="16" fill="#a5b4fc" text-anchor="middle">✓ Opción múltiple</text>
  <rect x="840" y="400" width="240" height="48" rx="8" fill="#22c55e" opacity="0.2"/>
  <text x="960" y="432" font-family="system-ui, sans-serif" font-size="16" fill="#86efac" text-anchor="middle">✓ Verdadero / Falso</text>
  <rect x="840" y="460" width="240" height="48" rx="8" fill="#f59e0b" opacity="0.2"/>
  <text x="960" y="492" font-family="system-ui, sans-serif" font-size="16" fill="#fcd34d" text-anchor="middle">✓ Respuesta corta</text>
</svg>
